<svg xmlns="http://www.w3.org/2000/svg" width="375" viewBox="0 0 375 375" height="375" version="1.0"><path fill="#FFA500" d="M 187.5 0 C 83.945312 0 0 83.945312 0 187.5 C 0 291.054688 83.945312 375 187.5 375 C 291.054688 375 375 291.054688 375 187.5 C 375 83.945312 291.054688 0 187.5 0"/><g fill="#FFF"><g><g><path d="M 9.078125 -15.171875 L 7.546875 -12.625 L 1.25 -16.390625 L -3.5625 -8.328125 L 2.734375 -4.5625 L 1.1875 -2 L -14.015625 -11.09375 L -12.46875 -13.65625 L -5.875 -9.71875 L -1.0625 -17.78125 L -7.65625 -21.71875 L -6.125 -24.265625 Z M 9.078125 -15.171875" transform="translate(48.808 116.073)"/></g></g></g><g fill="#FFF"><g><g><path d="M -9.0625 -12.734375 C -9.15625 -15.234375 -8.328125 -17.472656 -6.578125 -19.453125 C -4.835938 -21.441406 -2.722656 -22.546875 -0.234375 -22.765625 C 2.242188 -22.984375 4.429688 -22.253906 6.328125 -20.578125 C 8.234375 -18.910156 9.234375 -16.828125 9.328125 -14.328125 C 9.429688 -11.835938 8.609375 -9.597656 6.859375 -7.609375 C 5.117188 -5.628906 3 -4.53125 0.5 -4.3125 C -1.988281 -4.09375 -4.179688 -4.816406 -6.078125 -6.484375 C -7.984375 -8.160156 -8.976562 -10.242188 -9.0625 -12.734375 Z M -4.546875 -17.703125 C -5.710938 -16.378906 -6.253906 -14.847656 -6.171875 -13.109375 C -6.085938 -11.378906 -5.382812 -9.9375 -4.0625 -8.78125 C -2.75 -7.625 -1.222656 -7.109375 0.515625 -7.234375 C 2.265625 -7.367188 3.710938 -8.085938 4.859375 -9.390625 C 6.015625 -10.703125 6.539062 -12.222656 6.4375 -13.953125 C 6.332031 -15.691406 5.617188 -17.140625 4.296875 -18.296875 C 2.984375 -19.453125 1.46875 -19.96875 -0.25 -19.84375 C -1.96875 -19.71875 -3.398438 -19.003906 -4.546875 -17.703125 Z M -4.546875 -17.703125" transform="translate(63.632 92.626)"/></g></g></g><g fill="#FFF"><g><g><path d="M 13.90625 -10.921875 L 11.59375 -9.109375 L -3.671875 -13.265625 L 4.171875 -3.28125 L 1.828125 -1.4375 L -9.109375 -15.375 L -6.796875 -17.1875 L 8.515625 -13.03125 L 0.65625 -23.046875 L 2.96875 -24.859375 Z M 13.90625 -10.921875" transform="translate(82.82 71.937)"/></g></g></g><g fill="#FFF"><g><g><path d="M 6.046875 -20.34375 L -2.46875 -15.75 L -0.203125 -11.53125 L 7.421875 -15.65625 L 8.703125 -13.296875 L 1.078125 -9.171875 L 3.390625 -4.875 L 12.171875 -9.609375 L 13.453125 -7.25 L 2.046875 -1.109375 L -6.375 -16.703125 L 4.765625 -22.703125 Z M 6.046875 -20.34375" transform="translate(105.224 55.376)"/></g></g></g><g fill="#FFF"><g><g><path d="M 7.125 -8.71875 L 9.0625 -3.15625 L 6.25 -2.1875 L 4.34375 -7.65625 L -5.8125 -16.75 L -2.984375 -17.734375 L 4.640625 -11.25 L 6.484375 -21.046875 L 9.34375 -22.046875 Z M 7.125 -8.71875" transform="translate(127.117 44.3)"/></g></g></g><g fill="#FFF"><g><g><path d="M 1 -17.84375 L 8.671875 -18.421875 C 10.503906 -18.554688 11.976562 -18.269531 13.09375 -17.5625 C 14.21875 -16.851562 14.828125 -15.8125 14.921875 -14.4375 C 15.003906 -13.445312 14.789062 -12.578125 14.28125 -11.828125 C 13.78125 -11.085938 13.0625 -10.570312 12.125 -10.28125 C 13.3125 -10.15625 14.269531 -9.722656 15 -8.984375 C 15.738281 -8.253906 16.15625 -7.289062 16.25 -6.09375 C 16.363281 -4.582031 15.878906 -3.351562 14.796875 -2.40625 C 13.722656 -1.457031 12.179688 -0.910156 10.171875 -0.765625 L 2.328125 -0.171875 Z M 4.171875 -15.40625 L 4.515625 -10.734375 L 9.0625 -11.078125 C 10.007812 -11.148438 10.734375 -11.414062 11.234375 -11.875 C 11.742188 -12.34375 11.972656 -12.945312 11.921875 -13.6875 C 11.867188 -14.4375 11.5625 -14.984375 11 -15.328125 C 10.4375 -15.679688 9.675781 -15.820312 8.71875 -15.75 Z M 4.71875 -8.125 L 5.09375 -3.046875 L 9.640625 -3.390625 C 10.816406 -3.484375 11.710938 -3.773438 12.328125 -4.265625 C 12.953125 -4.753906 13.234375 -5.410156 13.171875 -6.234375 C 13.109375 -7.015625 12.734375 -7.601562 12.046875 -8 C 11.359375 -8.40625 10.429688 -8.5625 9.265625 -8.46875 Z M 4.71875 -8.125" transform="translate(164.784 34.193)"/></g></g></g><g fill="#FFF"><g><g><path d="M 16.265625 -13.625 L 6.640625 -14.5 L 6.21875 -9.734375 L 14.828125 -8.953125 L 14.578125 -6.28125 L 5.96875 -7.0625 L 5.53125 -2.203125 L 15.453125 -1.3125 L 15.21875 1.359375 L 2.3125 0.203125 L 3.890625 -17.4375 L 16.5 -16.296875 Z M 16.265625 -13.625" transform="translate(190.506 32.967)"/></g></g></g><g fill="#FFF"><g><g><path d="M 18.234375 -10.859375 L 8.859375 -13.25 L 7.671875 -8.625 L 16.0625 -6.484375 L 15.40625 -3.875 L 7.015625 -6.015625 L 5.8125 -1.296875 L 15.484375 1.171875 L 14.8125 3.78125 L 2.25 0.578125 L 6.625 -16.59375 L 18.890625 -13.46875 Z M 18.234375 -10.859375" transform="translate(214.866 35.79)"/></g></g></g><g fill="#FFF"><g><g><path d="M 19.6875 -6.328125 L 11.890625 -10.609375 L 9.4375 -6.140625 L 16.484375 -2.265625 L 15.203125 0.0625 L 8.15625 -3.8125 L 4.65625 2.5625 L 2.046875 1.125 L 10.578125 -14.40625 L 21 -8.6875 Z M 19.6875 -6.328125" transform="translate(252.323 48.468)"/></g></g></g><g fill="#FFF"><g><g><path d="M 13.328125 5.3125 L 6.28125 -0.1875 L 2.46875 1.9375 L 0.03125 0.015625 L 17.09375 -9.140625 L 19.5 -7.265625 L 14.703125 11.484375 L 12.1875 9.515625 Z M 14.046875 2.515625 L 16.265625 -5.734375 L 8.78125 -1.59375 Z M 14.046875 2.515625" transform="translate(271.799 59.701)"/></g></g></g><g fill="#FFF"><g><g><path d="M 9.109375 10.046875 L 10.90625 4.0625 C 10.78125 3.9375 10.59375 3.734375 10.34375 3.453125 L 7.515625 0.34375 L 3.5625 3.9375 L 1.5625 1.71875 L 14.6875 -10.171875 L 19.515625 -4.84375 C 21.035156 -3.164062 21.820312 -1.507812 21.875 0.125 C 21.9375 1.757812 21.257812 3.21875 19.84375 4.5 C 18.789062 5.457031 17.6875 6.03125 16.53125 6.21875 C 15.375 6.40625 14.234375 6.21875 13.109375 5.65625 L 11.375 12.5625 Z M 9.515625 -1.453125 L 12.34375 1.65625 C 14.269531 3.789062 16.113281 4.0625 17.875 2.46875 C 19.570312 0.925781 19.457031 -0.910156 17.53125 -3.046875 L 14.703125 -6.15625 Z M 9.515625 -1.453125" transform="translate(292.253 76.54)"/></g></g></g><g fill="#FFF"><g><g><path d="M 11 17.96875 L 9.5625 15.609375 L 20.828125 8.6875 L 8.203125 9.84375 L 7.1875 8.1875 L 13.96875 -2.515625 L 2.6875 4.390625 L 1.21875 1.984375 L 16.328125 -7.265625 L 18.171875 -4.234375 L 11.203125 6.890625 L 24.28125 5.71875 L 26.109375 8.71875 Z M 11 17.96875" transform="translate(309.353 96.126)"/></g></g></g><g fill="#FFF"><g><g><path d="M 20.203125 -1.03125 L 5.015625 1.203125 L 12.46875 7.828125 L 10.84375 9.65625 L 0.640625 0.578125 L 1.953125 -0.890625 L 17.140625 -3.125 L 10 -9.484375 L 11.625 -11.3125 L 21.515625 -2.5 Z M 20.203125 -1.03125" transform="translate(77.623 309.102)"/></g></g></g><g fill="#FFF"><g><g><path d="M 10.078125 -12.828125 L 15.78125 -9.4375 C 17.863281 -8.195312 19.195312 -6.519531 19.78125 -4.40625 C 20.363281 -2.289062 20.054688 -0.226562 18.859375 1.78125 C 17.671875 3.789062 16 5.046875 13.84375 5.546875 C 11.695312 6.054688 9.570312 5.6875 7.46875 4.4375 L 1.828125 1.078125 Z M 11.1875 -9.328125 L 5.421875 0.375 L 8.84375 2.390625 C 10.207031 3.203125 11.609375 3.421875 13.046875 3.046875 C 14.492188 2.679688 15.632812 1.796875 16.46875 0.390625 C 17.300781 -1.015625 17.523438 -2.453125 17.140625 -3.921875 C 16.753906 -5.398438 15.878906 -6.546875 14.515625 -7.359375 Z M 11.1875 -9.328125" transform="translate(100.007 327.463)"/></g></g></g><g fill="#FFF"><g><g><path d="M 11.6875 4.109375 L 10.515625 -1.5 C 10.378906 -1.519531 10.144531 -1.585938 9.8125 -1.703125 L 6.203125 -2.984375 L 4.578125 1.609375 L 2 0.703125 L 7.375 -14.546875 L 13.5625 -12.359375 C 15.507812 -11.679688 16.859375 -10.695312 17.609375 -9.40625 C 18.367188 -8.125 18.457031 -6.65625 17.875 -5 C 17.445312 -3.78125 16.8125 -2.84375 15.96875 -2.1875 C 15.125 -1.539062 14.128906 -1.195312 12.984375 -1.15625 L 14.609375 5.140625 Z M 7.015625 -5.296875 L 10.625 -4.015625 C 13.101562 -3.148438 14.703125 -3.742188 15.421875 -5.796875 C 16.117188 -7.773438 15.226562 -9.195312 12.75 -10.0625 L 9.140625 -11.34375 Z M 7.015625 -5.296875" transform="translate(127.782 342.315)"/></g></g></g><g fill="#FFF"><g><g><path d="M 12.984375 -1.8125 L 4.890625 -2.984375 L 2.828125 0.40625 L 0.015625 0 L 9.40625 -14.96875 L 12.171875 -14.5625 L 16.859375 2.453125 L 13.984375 2.03125 Z M 12.28125 -4.359375 L 10.296875 -11.90625 L 6.25 -5.234375 Z M 12.28125 -4.359375" transform="translate(156.744 351.134)"/></g></g></g><g fill="#FFF"><g><g><path d="M 9.328125 -0.4375 L 6.515625 -0.3125 L -0.703125 -16.15625 L 2.234375 -16.296875 L 7.84375 -3.40625 L 12.25 -16.765625 L 15.09375 -16.90625 Z M 9.328125 -0.4375" transform="translate(187.185 354.196)"/></g></g></g><g fill="#FFF"><g><g><path d="M 10.15625 -16.515625 L 1.578125 -14.484375 L 2.578125 -10.234375 L 10.25 -12.046875 L 10.8125 -9.65625 L 3.140625 -7.84375 L 4.171875 -3.515625 L 13.015625 -5.59375 L 13.578125 -3.203125 L 2.0625 -0.484375 L -1.65625 -16.21875 L 9.59375 -18.890625 Z M 10.15625 -16.515625" transform="translate(216.494 351.529)"/></g></g></g><g fill="#FFF"><g><g><path d="M 0.28125 -17.921875 C 2.195312 -18.753906 4.15625 -19 6.15625 -18.65625 L 6.078125 -16 C 4.160156 -16.25 2.507812 -16.070312 1.125 -15.46875 C 0.382812 -15.144531 -0.140625 -14.753906 -0.453125 -14.296875 C -0.773438 -13.835938 -0.828125 -13.363281 -0.609375 -12.875 C -0.398438 -12.382812 -0.0234375 -12.050781 0.515625 -11.875 C 1.066406 -11.695312 1.675781 -11.65625 2.34375 -11.75 C 3.007812 -11.851562 3.738281 -11.929688 4.53125 -11.984375 C 5.332031 -12.046875 6.09375 -12.066406 6.8125 -12.046875 C 7.53125 -12.035156 8.210938 -11.816406 8.859375 -11.390625 C 9.503906 -10.972656 10.007812 -10.347656 10.375 -9.515625 C 10.9375 -8.222656 10.863281 -6.960938 10.15625 -5.734375 C 9.457031 -4.503906 8.28125 -3.53125 6.625 -2.8125 C 5.5 -2.3125 4.316406 -2.039062 3.078125 -2 C 1.835938 -1.957031 0.664062 -2.125 -0.4375 -2.5 L -0.3125 -5.140625 C 0.738281 -4.773438 1.796875 -4.597656 2.859375 -4.609375 C 3.921875 -4.628906 4.851562 -4.816406 5.65625 -5.171875 C 6.53125 -5.554688 7.140625 -6.007812 7.484375 -6.53125 C 7.835938 -7.0625 7.890625 -7.609375 7.640625 -8.171875 C 7.421875 -8.679688 7.035156 -9.023438 6.484375 -9.203125 C 5.941406 -9.378906 5.335938 -9.421875 4.671875 -9.328125 C 4.003906 -9.234375 3.273438 -9.148438 2.484375 -9.078125 C 1.691406 -9.015625 0.941406 -8.976562 0.234375 -8.96875 C -0.460938 -8.96875 -1.132812 -9.171875 -1.78125 -9.578125 C -2.4375 -9.992188 -2.941406 -10.609375 -3.296875 -11.421875 C -3.847656 -12.679688 -3.796875 -13.898438 -3.140625 -15.078125 C -2.484375 -16.265625 -1.34375 -17.210938 0.28125 -17.921875 Z M 0.28125 -17.921875" transform="translate(244.012 343.743)"/></g></g></g><g fill="#FFF"><g><g><path d="M 10.6875 -7.265625 L 2.28125 -10.1875 L 1.703125 -6.140625 L 4.015625 -2.734375 L 1.765625 -1.1875 L -7.328125 -14.5625 L -5.078125 -16.109375 L -0.375 -9.203125 L 1.3125 -20.4375 L 3.953125 -22.234375 L 2.671875 -13.015625 L 13.40625 -9.109375 Z M 10.6875 -7.265625" transform="translate(269.065 331.549)"/></g></g></g><g fill="#FFF"><g><g><path d="M 3.53125 -3.328125 L 1.546875 -1.453125 L -9.546875 -13.21875 L -7.5625 -15.09375 Z M 3.53125 -3.328125" transform="translate(292.91 313.61)"/></g></g></g><path fill="#F4DE92" d="M 186.757812 146.300781 C 146.929688 146.300781 114.636719 178.589844 114.636719 218.421875 C 114.636719 258.253906 146.929688 290.542969 186.757812 290.542969 C 226.589844 290.542969 258.878906 258.253906 258.878906 218.421875 C 258.878906 178.589844 226.589844 146.300781 186.757812 146.300781"/><path fill="#FFF" d="M 155.835938 178.976562 L 219.269531 178.976562 C 217.496094 178.039062 215.71875 177.042969 214.058594 176.046875 C 203.125 169.339844 193.765625 160.957031 187.550781 153.3125 C 181.398438 160.957031 171.980469 169.339844 161.042969 176.046875 C 159.382812 177.042969 157.609375 178.039062 155.835938 178.976562 Z M 224.105469 179.03125 L 224.164062 179.03125 C 224.222656 179.089844 224.277344 179.089844 224.277344 179.144531 C 231.09375 182.328125 238.304688 184.714844 245.460938 185.710938 C 255.167969 187.074219 265.757812 184.714844 273.402344 180.140625 C 277.066406 177.894531 280.097656 175.136719 281.929688 172.039062 C 283.707031 169 284.363281 165.53125 283.535156 161.867188 C 283.191406 160.445312 282.589844 159.050781 281.761719 157.574219 C 281.761719 157.519531 281.761719 157.519531 281.761719 157.460938 C 279.925781 154.277344 276.980469 151.007812 272.542969 147.65625 C 263.953125 141.148438 251.847656 136.316406 238.335938 133.84375 C 225.136719 131.429688 210.769531 131.257812 197.34375 133.84375 C 196.742188 133.957031 196.167969 133.617188 196.054688 133.019531 C 195.996094 132.480469 196.226562 132.023438 196.65625 131.855469 C 200.433594 129.609375 205.414062 126.738281 211.195312 123.699219 C 212.914062 109.488281 207.703125 99.964844 200.261719 95.21875 C 196.484375 92.746094 192.046875 91.582031 187.609375 91.582031 C 183.171875 91.582031 178.792969 92.746094 174.957031 95.21875 C 167.515625 99.964844 162.363281 109.488281 164.023438 123.699219 C 169.832031 126.738281 174.84375 129.636719 178.621094 131.910156 C 179.164062 132.195312 179.335938 132.847656 179.023438 133.390625 C 178.792969 133.730469 178.304688 133.984375 177.847656 133.871094 C 164.421875 131.285156 150.050781 131.457031 136.855469 133.871094 C 123.429688 136.34375 111.234375 141.148438 102.648438 147.683594 C 98.210938 151.039062 95.261719 154.335938 93.488281 157.488281 C 93.429688 157.546875 93.429688 157.546875 93.429688 157.601562 C 92.601562 159.082031 92 160.472656 91.714844 161.894531 C 90.824219 165.53125 91.484375 169 93.316406 172.070312 C 95.148438 175.195312 98.097656 177.953125 101.847656 180.167969 C 109.488281 184.746094 120.023438 187.101562 129.699219 185.738281 C 136.914062 184.746094 144.183594 182.328125 150.996094 179.03125 C 151.054688 179.03125 151.054688 179.03125 151.054688 179.03125 C 154.117188 177.554688 157.152344 175.90625 159.984375 174.144531 C 171.234375 167.324219 180.738281 158.625 186.78125 150.894531 C 187.121094 150.414062 187.78125 150.300781 188.269531 150.726562 C 188.382812 150.78125 188.441406 150.839844 188.496094 150.894531 C 194.535156 158.65625 204.070312 167.351562 215.234375 174.144531 C 218.011719 175.90625 221.042969 177.554688 224.105469 179.03125 Z M 225.109375 181.84375 C 226.054688 187.730469 226.167969 193.78125 225.597656 199.894531 L 225.597656 199.949219 C 224.878906 206.996094 223.164062 214.046875 220.558594 220.753906 C 220.558594 220.808594 220.558594 220.867188 220.5 220.867188 C 219.898438 222.515625 219.210938 224.105469 218.496094 225.671875 C 212 239.9375 201.464844 252.386719 188.097656 259.804688 C 187.753906 259.972656 187.324219 259.972656 187.035156 259.804688 C 178.105469 254.859375 170.460938 247.640625 164.367188 239.199219 C 164.308594 239.085938 164.195312 238.96875 164.136719 238.800781 C 161.246094 234.679688 158.753906 230.273438 156.636719 225.699219 C 155.976562 224.21875 155.347656 222.769531 154.746094 221.292969 C 154.519531 221.121094 154.402344 220.808594 154.402344 220.46875 C 154.402344 220.414062 154.402344 220.355469 154.402344 220.296875 C 151.96875 213.902344 150.367188 207.140625 149.621094 200.488281 C 149.507812 200.320312 149.453125 200.089844 149.453125 199.835938 C 149.453125 199.664062 149.453125 199.496094 149.566406 199.351562 C 148.964844 193.414062 149.164062 187.558594 150.109375 181.84375 C 143.613281 184.773438 136.796875 186.90625 129.984375 187.84375 C 119.824219 189.261719 108.6875 186.847656 100.703125 181.960938 C 96.664062 179.542969 93.429688 176.558594 91.425781 173.09375 C 89.367188 169.566406 88.59375 165.644531 89.59375 161.410156 C 89.882812 160.132812 90.367188 158.824219 91.027344 157.546875 C 80.40625 152.941406 73.851562 146.832031 70.703125 140.378906 C 68.582031 136.03125 67.925781 131.570312 68.640625 127.335938 C 69.300781 123.101562 71.304688 119.121094 74.453125 115.769531 C 79.230469 110.480469 86.789062 106.789062 96.207031 105.964844 C 112.296875 104.597656 129.042969 108.777344 143.726562 114.488281 C 150.167969 117.019531 156.207031 119.832031 161.644531 122.53125 C 160.585938 110.480469 164.25 101.671875 170.117188 96.214844 C 169.117188 93.402344 166.625 90.160156 162.960938 88 C 159.957031 86.238281 156.035156 85.1875 151.539062 85.757812 C 150.941406 85.871094 150.425781 85.414062 150.367188 84.820312 C 150.308594 84.222656 150.710938 83.710938 151.3125 83.652344 C 156.351562 83 160.671875 84.136719 164.078125 86.183594 C 167.859375 88.429688 170.578125 91.695312 171.894531 94.765625 C 172.496094 94.226562 173.125 93.828125 173.726562 93.402344 C 177.933594 90.757812 182.773438 89.394531 187.582031 89.394531 C 192.417969 89.394531 197.226562 90.757812 201.4375 93.402344 C 202.09375 93.800781 202.667969 94.226562 203.324219 94.765625 C 204.613281 91.726562 207.277344 88.429688 211.082031 86.183594 C 214.519531 84.136719 218.839844 83 223.851562 83.652344 C 224.507812 83.710938 224.910156 84.25 224.792969 84.820312 C 224.738281 85.414062 224.191406 85.871094 223.621094 85.757812 C 219.125 85.160156 215.234375 86.238281 212.199219 88 C 208.535156 90.160156 206.042969 93.402344 205.042969 96.214844 C 210.910156 101.671875 214.574219 110.480469 213.515625 122.53125 C 218.953125 119.832031 224.996094 117.019531 231.492188 114.488281 C 246.09375 108.804688 262.894531 104.628906 278.953125 105.964844 C 288.371094 106.789062 295.929688 110.480469 300.796875 115.769531 C 303.859375 119.121094 305.890625 123.101562 306.519531 127.335938 C 307.238281 131.570312 306.636719 136.03125 304.460938 140.378906 C 301.3125 146.832031 294.8125 152.941406 284.222656 157.546875 C 284.878906 158.824219 285.339844 160.132812 285.652344 161.410156 C 286.65625 165.644531 285.882812 169.566406 283.820312 173.09375 C 281.816406 176.558594 278.554688 179.542969 274.601562 181.960938 C 266.558594 186.847656 255.425781 189.234375 245.261719 187.84375 C 238.363281 186.90625 231.578125 184.773438 225.109375 181.84375 Z M 152.34375 181.136719 C 151.285156 186.820312 151.113281 192.757812 151.570312 198.699219 L 223.507812 198.699219 C 224.050781 192.757812 223.792969 186.847656 222.734375 181.136719 Z M 151.828125 200.886719 C 152.542969 207.113281 154.089844 213.335938 156.320312 219.390625 L 218.8125 219.390625 C 221.074219 213.335938 222.589844 207.113281 223.304688 200.886719 Z M 157.152344 221.492188 C 157.636719 222.601562 158.097656 223.738281 158.582031 224.789062 C 160.585938 229.195312 163.019531 233.371094 165.738281 237.292969 L 209.394531 237.292969 C 212.171875 233.371094 214.546875 229.195312 216.550781 224.789062 C 217.035156 223.738281 217.496094 222.628906 217.980469 221.492188 Z M 167.257812 239.480469 C 172.808594 246.871094 179.679688 253.179688 187.550781 257.644531 C 195.425781 253.179688 202.292969 246.898438 207.847656 239.480469 Z M 212.800781 125.289062 C 212.6875 125.347656 212.628906 125.402344 212.570312 125.402344 C 208.90625 127.335938 205.585938 129.15625 202.695312 130.800781 C 214.632812 129.210938 227.140625 129.636719 238.734375 131.742188 C 252.53125 134.269531 265.015625 139.1875 273.886719 145.949219 C 278.152344 149.191406 281.160156 152.460938 283.164062 155.640625 C 293.265625 151.292969 299.480469 145.46875 302.511719 139.441406 C 304.402344 135.519531 305.003906 131.511719 304.34375 127.703125 C 303.746094 123.898438 301.914062 120.316406 299.136719 117.246094 C 294.640625 112.359375 287.597656 108.832031 278.726562 108.152344 C 263.039062 106.789062 246.605469 110.910156 232.238281 116.480469 C 225.109375 119.234375 218.554688 122.332031 212.800781 125.289062 Z M 162.589844 125.402344 C 162.476562 125.402344 162.417969 125.347656 162.363281 125.289062 C 156.550781 122.363281 149.996094 119.234375 142.894531 116.480469 C 128.496094 110.878906 112.066406 106.789062 96.378906 108.125 C 87.503906 108.832031 80.464844 112.359375 76.027344 117.21875 C 73.191406 120.257812 71.359375 123.867188 70.757812 127.675781 C 70.101562 131.511719 70.703125 135.492188 72.648438 139.441406 C 75.597656 145.496094 81.808594 151.292969 92 155.640625 C 93.945312 152.460938 96.980469 149.191406 101.273438 145.949219 C 110.089844 139.1875 122.570312 134.269531 136.425781 131.742188 C 147.960938 129.636719 160.445312 129.210938 172.410156 130.800781 C 169.488281 129.15625 166.199219 127.335938 162.589844 125.402344 Z M 162.589844 125.402344"/><g fill="#FFF"><g><g><path d="M 4.984375 -12.203125 C 6.140625 -12.203125 7.070312 -11.925781 7.78125 -11.375 C 8.488281 -10.820312 8.84375 -10.082031 8.84375 -9.15625 C 8.84375 -8.09375 8.101562 -6.765625 6.625 -5.171875 L 3.484375 -1.828125 L 9.40625 -1.828125 L 9.40625 0 L 0.78125 0 L 0.78125 -1.484375 L 5.25 -6.28125 C 6.226562 -7.289062 6.71875 -8.148438 6.71875 -8.859375 C 6.71875 -9.347656 6.535156 -9.726562 6.171875 -10 C 5.816406 -10.28125 5.320312 -10.421875 4.6875 -10.421875 C 3.59375 -10.421875 2.492188 -9.914062 1.390625 -8.90625 L 0.578125 -10.46875 C 1.992188 -11.625 3.460938 -12.203125 4.984375 -12.203125 Z M 4.984375 -12.203125" transform="translate(26.52 183.981)"/></g></g></g><g fill="#FFF"><g><g><path d="M 5.984375 -12.171875 C 7.640625 -12.171875 8.910156 -11.640625 9.796875 -10.578125 C 10.679688 -9.523438 11.125 -8.015625 11.125 -6.046875 C 11.125 -4.085938 10.679688 -2.582031 9.796875 -1.53125 C 8.910156 -0.476562 7.640625 0.046875 5.984375 0.046875 C 4.328125 0.046875 3.050781 -0.476562 2.15625 -1.53125 C 1.269531 -2.582031 0.828125 -4.085938 0.828125 -6.046875 C 0.828125 -8.015625 1.269531 -9.523438 2.15625 -10.578125 C 3.050781 -11.640625 4.328125 -12.171875 5.984375 -12.171875 Z M 5.984375 -10.5625 C 3.941406 -10.5625 2.921875 -9.0625 2.921875 -6.0625 C 2.921875 -3.0625 3.941406 -1.5625 5.984375 -1.5625 C 8.015625 -1.5625 9.03125 -3.0625 9.03125 -6.0625 C 9.03125 -9.0625 8.015625 -10.5625 5.984375 -10.5625 Z M 5.984375 -10.5625" transform="translate(43.156 183.981)"/></g></g></g></svg>